PathFileType	4	(X/Y/Z)	6_coords_data.trc
DataRate	CameraRate	NumFrames	NumMarkers	Units	OrigDataRate	OrigDataStartFrame	OrigNumFrames
30.0	30.0	7	21	m	30.0	41	71
Frame#	Time	THUMB_TIP	THUMB_IP	THUMB_MCP	THUMB_CMC	INDEX_TIP	INDEX_DIP	INDEX_PIP	INDEX_MCP	MIDDLE_TIP	MIDDLE_DIP	MIDDLE_PIP	MIDDLE_MCP	RING_TIP	RING_DIP	RING_PIP	RING_MCP	PINKY_TIP	PINKY_DIP	PINKY_PIP	PINKY_MCP	WRIST
X1	Y1	Z1	X2	Y2	Z2	X3	Y3	Z3	X4	Y4	Z4	X5	Y5	Z5	X6	Y6	Z6	X7	Y7	Z7	X8	Y8	Z8	X9	Y9	Z9	X10	Y10	Z10	X11	Y11	Z11	X12	Y12	Z12	X13	Y13	Z13	X14	Y14	Z14	X15	Y15	Z15	X16	Y16	Z16	X17	Y17	Z17	X18	Y18	Z18	X19	Y19	Z19	X20	Y20	Z20	X21	Y21	Z21
40	1.3333333333333333	0.04872809982299805	-0.05008919906616211	1.013469970703125	0.034445201873779294	-0.06779650115966797	1.0255699462890624	0.009603230476379395	-0.07275029754638672	1.0446800537109375	-0.009363869667053222	-0.04521310043334961	1.0540799560546874	0.04616719818115234	-0.06779070281982422	0.941718017578125	0.026490299224853516	-0.06886039733886719	0.9530130004882813	0.005784470081329346	-0.06893309783935547	0.9675469970703126	-0.02259469985961914	-0.06368899917602538	0.996051025390625	0.02497159957885742	-0.042960399627685546	1.026469970703125	0.027920799255371095	-0.04093600082397461	1.004719970703125	0.01573270034790039	-0.03970780181884766	0.9763419799804688	-0.028201299667358397	-0.03978060150146484	0.9868179931640625	0.03400009918212891	-0.0296658992767334	1.0266099853515624	0.028977399826049806	-0.024510900497436525	1.00697998046875	0.017486000061035158	-0.01742499923706055	0.9811950073242187	-0.02476930046081543	-0.015286000251770019	0.9907940063476562	0.028409900665283202	0.025805099487304688	0.9507650146484375	0.017141199111938475	0.018437799453735353	0.966572998046875	0.005127389907836914	0.011722599983215332	0.9807899780273438	-0.014368800163269043	0.001352740049362182	1.0022100219726562	-0.03819179916381836	-0.01883259963989258	1.0700699462890626
41	1.3666666666666667	0.0506531982421875	-0.055835498809814456	1.0124400024414062	0.03376509857177734	-0.07096060180664063	1.0255799560546874	0.008685879707336426	-0.07415480041503907	1.0446400146484376	-0.009243780136108399	-0.04561159896850586	1.0540400390625	0.048330699920654294	-0.06488870239257813	0.9438569946289063	0.02833919906616211	-0.06652610015869141	0.9540859985351563	0.007133470058441162	-0.06740160369873047	0.9678359985351562	-0.022465599060058593	-0.06342670059204102	0.9961589965820312	0.0351156005859375	-0.04051490020751953	1.018510009765625	0.03285219955444336	-0.03911940002441406	0.9971229858398437	0.014937600135803223	-0.039128299713134765	0.9722119750976562	-0.02762969970703125	-0.0393406982421875	0.9869910278320313	0.04332080078125	-0.028	1.01677001953125	0.033966400146484374	-0.022701099395751954	0.9985880126953125	0.016450300216674804	-0.01605769920349121	0.9764860229492187	-0.02461989974975586	-0.01487969970703125	0.9910360107421875	0.027256599426269533	0.027639400482177733	0.950406005859375	0.016068300247192382	0.020064599990844728	0.9660910034179687	0.004238409996032715	0.013184000015258789	0.9803619995117188	-0.015077500343322755	0.00233447003364563	1.0021699829101562	-0.038058399200439456	-0.01850629997253418	1.0704300537109375
42	1.4	0.051664600372314455	-0.061942699432373044	1.0120900268554687	0.03285329818725586	-0.07414409637451172	1.025800048828125	0.007436170101165772	-0.075193603515625	1.0447900390625	-0.009540149688720703	-0.04569089889526367	1.054219970703125	0.049780799865722654	-0.06342440032958985	0.944572021484375	0.0296914005279541	-0.06536979675292968	0.954447021484375	0.008248900413513184	-0.06646050262451172	0.9679190063476563	-0.021668899536132814	-0.06302270126342774	0.996406005859375	0.04836280059814453	-0.038069198608398434	1.0060700073242188	0.03843410110473633	-0.03804140090942383	0.9875349731445312	0.014016400337219239	-0.038827598571777346	0.9687360229492188	-0.026962600708007812	-0.03879610061645508	0.9874119873046875	0.05454489898681641	-0.025069799423217774	1.0029400024414064	0.04009270095825195	-0.020137500762939454	0.9886389770507813	0.015491200447082519	-0.014806099891662598	0.97318798828125	-0.023607799530029297	-0.014619099617004394	0.9914450073242187	0.027118600845336915	0.029267099380493163	0.9506859741210938	0.015890700340270996	0.0215841007232666	0.9661890258789062	0.004129119873046875	0.014515899658203124	0.9804010009765625	-0.014775099754333497	0.0031640200614929197	1.0019600219726563	-0.03836169815063477	-0.01807699966430664	1.0706500244140624
43	1.4333333333333333	0.053160900115966796	-0.06679409790039062	1.01197998046875	0.03246310043334961	-0.07577880096435546	1.0263199462890624	0.00671357011795044	-0.07579139709472656	1.0450899658203125	-0.009493260383605958	-0.04561159896850586	1.05422998046875	0.05136040115356445	-0.06303549957275391	0.944364990234375	0.031041799545288087	-0.0649658966064453	0.9544310302734375	0.00935103988647461	-0.06599500274658203	0.96785498046875	-0.020007499694824217	-0.06257369995117187	0.9967680053710938	0.05934349822998047	-0.036223400115966795	0.9898839721679688	0.0428213996887207	-0.03719940185546875	0.9762630004882813	0.012896300315856934	-0.03853870010375977	0.9658980102539062	-0.025363100051879882	-0.03836410140991211	0.9879600219726562	0.06422949981689453	-0.020097099304199218	0.983677978515625	0.04467879867553711	-0.016417499542236327	0.9762449951171875	0.014918100357055665	-0.013405200004577636	0.9707080078125	-0.021999900817871093	-0.014444399833679199	0.9916290283203125	0.027905399322509766	0.030814300537109374	0.9514949951171875	0.016542499542236327	0.022980300903320313	0.966844970703125	0.004656670093536377	0.01576920032501221	0.98093701171875	-0.014345000267028809	0.003955980062484741	1.0023200073242187	-0.03845349884033203	-0.01790329933166504	1.0711300048828125
44	1.4666666666666666	0.05480400085449219	-0.07185690307617187	1.013030029296875	0.032451099395751956	-0.07754650115966796	1.027300048828125	0.0067181501388549805	-0.07620809936523437	1.0455	-0.009211589813232422	-0.04558580017089844	1.054719970703125	0.05237210083007812	-0.0634208984375	0.9430659790039062	0.03221929931640625	-0.06511710357666016	0.9538419799804687	0.011138500213623047	-0.0657520980834961	0.967875	-0.01789229965209961	-0.061915000915527346	0.9973389892578125	0.066339599609375	-0.034940299987792967	0.9721699829101562	0.04466009902954102	-0.036594200134277347	0.9655170288085938	0.013059200286865235	-0.03830810165405273	0.9639450073242187	-0.02309480094909668	-0.037851200103759766	0.9886389770507813	0.06518180084228516	-0.01601409912109375	0.9692410278320313	0.04502349853515625	-0.013434399604797363	0.965593017578125	0.014241600036621093	-0.012011799812316894	0.967906005859375	-0.02017650032043457	-0.014145099639892578	0.9925	0.028530399322509767	0.032832698822021486	0.9523270263671875	0.017287700653076173	0.024760799407958986	0.967468017578125	0.005365049839019776	0.017211999893188477	0.981614013671875	-0.01345199966430664	0.004697259902954102	1.00272998046875	-0.03850809860229492	-0.017586799621582033	1.07156005859375
45	1.5	0.05597790145874024	-0.07618289947509765	1.0132000122070313	0.03262220001220703	-0.07881770324707031	1.0281800537109376	0.006453660011291504	-0.07635359954833984	1.0461199951171876	-0.00916275978088379	-0.0452681999206543	1.0551700439453124	0.0523291015625	-0.06495780181884765	0.9409769897460938	0.03268349838256836	-0.06605919647216797	0.9529329833984375	0.01215250015258789	-0.06606109619140625	0.9677760009765625	-0.015689499855041505	-0.061254901885986326	0.9979359741210938	0.0674166030883789	-0.03495449829101562	0.9588939819335938	0.04472980117797851	-0.03652489852905273	0.9575789794921875	0.01316469955444336	-0.038150600433349606	0.9624450073242188	-0.021151100158691406	-0.037249500274658204	0.9895770263671875	0.0640238037109375	-0.011850000381469727	0.9557830200195313	0.042692901611328125	-0.010546500205993653	0.957510986328125	0.013206299781799316	-0.010588299751281739	0.9656810302734375	-0.018683599472045898	-0.013702300071716309	0.9934739990234375	0.029253400802612305	0.034617298126220705	0.9532230224609375	0.01801889991760254	0.026294500350952148	0.968333984375	0.006192130088806152	0.018428300857543944	0.982322021484375	-0.012591300010681152	0.005359469890594482	1.0032999877929687	-0.03840230178833008	-0.017247900009155274	1.0716600341796876
46	1.5333333333333334	0.05665019989013672	-0.07994380187988281	1.0136900024414062	0.03295140075683594	-0.07916639709472656	1.028989990234375	0.006627289772033691	-0.07618009948730468	1.04656005859375	-0.008912960052490234	-0.04490719985961914	1.05543994140625	0.05143379974365234	-0.06603589630126953	0.9382670288085937	0.032431400299072266	-0.0665885009765625	0.9513460083007812	0.012695099830627441	-0.06608460235595703	0.9673599853515625	-0.014175399780273438	-0.0606520004272461	0.9983569946289063	0.06633619689941406	-0.03517050170898438	0.9487789916992188	0.043180599212646484	-0.036658100128173825	0.9515590209960938	0.012687000274658203	-0.038118099212646486	0.9610960083007812	-0.019586000442504883	-0.03668349838256836	0.9900609741210937	0.06096889877319336	-0.008810959815979003	0.945625	0.03973469924926758	-0.008565420150756837	0.9515670166015625	0.012273400306701661	-0.009614919662475586	0.9641220092773437	-0.017111200332641602	-0.013408300399780273	0.9937100219726562	0.029877199172973632	0.035723400115966794	0.9535029907226562	0.01855419921875	0.027306299209594726	0.9686790161132812	0.006891310214996338	0.019282100677490234	0.9826719970703125	-0.01177340030670166	0.005801809787750244	1.00375	-0.038421600341796876	-0.0169015007019043	1.0719599609375
